<svg width="32" height="32" viewBox="0 0 32 32" fill="none" xmlns="http://www.w3.org/2000/svg">
<g clip-path="url(#clip0)">
<path d="M12.2561 19.4081C12.2561 17.3234 13.9459 15.6335 16.0305 15.6333C18.1148 15.6357 19.8036 17.3244 19.8058 19.4086C19.8055 21.4931 18.1154 23.1828 16.0308 23.1828C13.946 23.1828 12.2561 21.4928 12.2561 19.4081Z" stroke="#4505FB" stroke-width="0.999596"/>
<path d="M19.0194 24.8585V30.9145L16.8251 29.0369L16.8249 29.0367C16.3677 28.6459 15.6939 28.6459 15.2367 29.0367L15.2365 29.0369L13.0425 30.9144V24.8587C14.9004 25.8817 17.1616 25.8817 19.0194 24.8585Z" stroke="#4505FB" stroke-width="0.999596"/>
<path d="M19.1841 4.86824L19.1841 4.86883C19.1859 6.33998 20.378 7.53247 21.8495 7.5342H21.8501H27.0001V26.302C26.9995 26.8234 26.5768 27.2462 26.0551 27.2469H21.4631V22.4285C22.9091 19.8349 22.3193 16.57 20.0391 14.6476C17.7235 12.6955 14.3384 12.6955 12.0227 14.6476C9.74248 16.57 9.1527 19.8349 10.5987 22.4285V27.2469H6.00674C5.48505 27.2462 5.06239 26.8235 5.06172 26.3023V1.44441C5.06239 0.92313 5.48505 0.500474 6.00634 0.499798H19.1841L19.1841 4.86824Z" stroke="#4505FB" stroke-width="0.999596"/>
<path d="M21.6279 2.02131L25.0209 5.09052H21.8505C21.7277 5.09013 21.6282 4.99062 21.6279 4.86781V2.02131Z" stroke="#4505FB" stroke-width="0.999596"/>
</g>
<defs>
<clipPath id="clip0">
<rect width="32" height="32" fill="white"/>
</clipPath>
</defs>
</svg>
