<svg width="30" height="30" viewBox="0 0 30 30" fill="none" xmlns="http://www.w3.org/2000/svg">
<path d="M2.1875 0.5H27.8125C28.7426 0.5 29.5 1.25739 29.5 2.1875V5.3125C29.5 6.24261 28.7426 7 27.8125 7H2.1875C1.25739 7 0.5 6.24261 0.5 5.3125V2.1875C0.5 1.25739 1.25739 0.5 2.1875 0.5Z" stroke="#4505FB"/>
<path d="M5.3125 29.5H2.1875C1.25739 29.5 0.5 28.7426 0.5 27.8125V12.1875C0.5 11.2574 1.25739 10.5 2.1875 10.5H5.3125C6.24261 10.5 7 11.2574 7 12.1875V27.8125C7 28.7426 6.24261 29.5 5.3125 29.5Z" stroke="#4505FB"/>
<path d="M12.1874 10.5H27.8124C28.7425 10.5 29.4999 11.2574 29.4999 12.1875V27.8125C29.4999 28.7426 28.7425 29.5 27.8124 29.5H12.1874C11.2573 29.5 10.4999 28.7426 10.4999 27.8125V12.1875C10.4999 11.2574 11.2573 10.5 12.1874 10.5Z" stroke="#4505FB"/>
</svg>
