<svg width="32" height="30" viewBox="0 0 32 30" fill="none" xmlns="http://www.w3.org/2000/svg">
<path d="M7.50749 17.3605L7.51877 17.2878V7.49083C7.51877 7.33492 7.45685 7.18539 7.34663 7.07513C7.23645 6.96491 7.08702 6.90294 6.93117 6.90283L7.50749 17.3605ZM7.50749 17.3605C7.48611 17.4983 7.41621 17.6239 7.31041 17.7147C7.20461 17.8054 7.06986 17.8554 6.93045 17.8556L6.93117 18.3556V17.8556C3.90651 17.8556 1.45477 15.4039 1.45477 12.3792C1.45477 9.35464 3.90642 6.90293 6.93099 6.90283L7.50749 17.3605Z" stroke="#4505FB"/>
<path d="M30.5453 1.50587C30.5402 1.35722 30.4789 1.21573 30.3734 1.11021C30.2632 1.00003 30.1138 0.938091 29.958 0.937988L30.5453 1.50587ZM30.5453 1.50587L30.5447 1.51047C30.5432 1.52214 30.5412 1.53968 30.54 1.56054L30.5101 2.08879H30.5456V23.1816H30.4756L30.5366 23.7362C30.5384 23.7525 30.5404 23.7673 30.5418 23.7778L30.545 23.8023C30.5453 23.8045 30.5455 23.8062 30.5456 23.8074C30.5441 23.9613 30.4823 24.1085 30.3734 24.2174C30.2632 24.3275 30.1138 24.3895 29.958 24.3896L30.5453 1.50587ZM10.5136 17.4606L10.5236 17.5425C10.5408 17.6839 10.6091 17.8142 10.7157 17.9088C10.8222 18.0034 10.9597 18.0557 11.1022 18.056H18.7564H18.8904L19.0064 18.123L29.4704 24.1642L29.5192 24.1923L29.5605 24.2307C29.6685 24.3309 29.8071 24.3895 29.9579 24.3896L10.5136 17.4606ZM10.5136 17.4606V7.27919C10.5136 7.12335 10.5755 6.97389 10.6857 6.86369C10.7959 6.7535 10.9454 6.69159 11.1012 6.69159H19.7284H19.8624L19.9784 6.6246L29.5488 1.099L29.5774 1.08252L29.6035 1.06243C29.7074 0.982618 29.8287 0.93803 29.9579 0.937988L10.5136 17.4606Z" stroke="#4505FB"/>
<path d="M10.62 22.1829L11.0522 21.9314C11.0594 21.9439 11.0784 21.9777 11.1016 22.019C11.1094 22.0329 11.1177 22.0476 11.1262 22.0627L11.1278 22.0617L11.2918 22.3458L14.9758 28.727L10.6931 22.3127C10.6818 22.2925 10.671 22.2734 10.6614 22.2562C10.6414 22.2206 10.6262 22.1935 10.62 22.1829ZM10.62 22.1829C10.5486 22.0592 10.5022 21.9227 10.4835 21.7811C10.4648 21.6395 10.4743 21.4956 10.5112 21.3576C10.5482 21.2196 10.612 21.0903 10.6989 20.977C10.7859 20.8637 10.8943 20.7687 11.018 20.6973M10.62 22.1829L11.053 21.9327C11.0144 21.8659 10.9893 21.7922 10.9792 21.7157C10.9691 21.6392 10.9742 21.5615 10.9942 21.487C11.0141 21.4125 11.0486 21.3426 11.0956 21.2814C11.1423 21.2205 11.2005 21.1694 11.2669 21.1309M11.018 20.6973L11.266 21.1315C11.2663 21.1313 11.2666 21.1311 11.2669 21.1309M11.018 20.6973C11.1572 20.6178 11.3123 20.5704 11.472 20.5585V21.0513H11.5088H11.5871M11.018 20.6973L11.2679 21.1303C11.2676 21.1305 11.2673 21.1307 11.2669 21.1309M11.2669 21.1309C11.3412 21.0887 11.424 21.0634 11.5092 21.0571L11.5871 21.0513M15.1036 21.0016C15.0166 20.8815 14.9057 20.7805 14.7779 20.7051C14.6501 20.6297 14.5081 20.5814 14.3608 20.5633V21.0513H14.3008H14.2326M15.1036 21.0016L16.1878 28.7615L17.8342 27.8113L17.8868 27.7677C17.9886 27.6834 18.0588 27.5671 18.0858 27.4377C18.1129 27.3084 18.0952 27.1737 18.0356 27.0557L18.0136 27.012M15.1036 21.0016L14.683 21.2445L14.7082 21.2881L14.7652 21.3868M15.1036 21.0016L18.2349 26.3958M14.2326 21.0513L13.8608 21.0055V20.5633V20.5513H11.972V20.5585V21.0225L11.5871 21.0513M14.2326 21.0513H11.5871M14.2326 21.0513L14.2998 21.0595C14.3789 21.0693 14.4551 21.0952 14.5237 21.1357C14.5924 21.1762 14.6519 21.2304 14.6987 21.295L14.7652 21.3868M14.7652 21.3868L18.005 26.9977L18.0104 27.007L18.0136 27.012M14.7652 21.3868L14.9638 21.661L15.3546 21.4341L15.366 21.4275L18.2349 26.3958M18.0136 27.012L18.0061 26.9971L17.8217 26.6317L18.2341 26.3963L18.2349 26.3958M18.0136 27.012L18.0162 27.0161C18.018 27.0189 18.0197 27.0216 18.0214 27.0242C18.024 27.0294 18.0269 27.0349 18.03 27.0406L18.0298 27.0407L18.0363 27.052L18.0378 27.0546L18.0515 27.0784L18.2349 26.3958M18.4539 26.7747L18.4408 26.7517C18.4425 26.7542 18.4444 26.7566 18.4463 26.759C18.4498 26.7634 18.4533 26.768 18.4564 26.7733C18.4594 26.7784 18.4615 26.7836 18.4635 26.7888C18.465 26.7926 18.4666 26.7964 18.4684 26.8001L18.4539 26.7747Z" stroke="#4505FB"/>
</svg>
