<svg width="47" height="25" viewBox="0 0 47 25" fill="none" xmlns="http://www.w3.org/2000/svg">
<path d="M41.0039 16.1406L43.3008 4H46.8047L43.0195 21.0625H39.4805L36.7031 9.64844L33.9258 21.0625H30.3867L26.6016 4H30.1055L32.4141 16.1172L35.2266 4H38.2031L41.0039 16.1406Z" fill="black"/>
<path d="M9.5625 15.8203C9.5625 15.1562 9.32812 14.6484 8.85938 14.2969C8.39062 13.9375 7.54688 13.5625 6.32812 13.1719C5.10938 12.7734 4.14453 12.3828 3.43359 12C1.49609 10.9531 0.527344 9.54297 0.527344 7.76953C0.527344 6.84766 0.785156 6.02734 1.30078 5.30859C1.82422 4.58203 2.57031 4.01562 3.53906 3.60938C4.51562 3.20312 5.60938 3 6.82031 3C8.03906 3 9.125 3.22266 10.0781 3.66797C11.0312 4.10547 11.7695 4.72656 12.293 5.53125C12.8242 6.33594 13.0898 7.25 13.0898 8.27344H9.57422C9.57422 7.49219 9.32812 6.88672 8.83594 6.45703C8.34375 6.01953 7.65234 5.80078 6.76172 5.80078C5.90234 5.80078 5.23438 5.98438 4.75781 6.35156C4.28125 6.71094 4.04297 7.1875 4.04297 7.78125C4.04297 8.33594 4.32031 8.80078 4.875 9.17578C5.4375 9.55078 6.26172 9.90234 7.34766 10.2305C9.34766 10.832 10.8047 11.5781 11.7188 12.4688C12.6328 13.3594 13.0898 14.4688 13.0898 15.7969C13.0898 17.2734 12.5312 18.4336 11.4141 19.2773C10.2969 20.1133 8.79297 20.5312 6.90234 20.5312C5.58984 20.5312 4.39453 20.293 3.31641 19.8164C2.23828 19.332 1.41406 18.6719 0.84375 17.8359C0.28125 17 0 16.0312 0 14.9297H3.52734C3.52734 16.8125 4.65234 17.7539 6.90234 17.7539C7.73828 17.7539 8.39062 17.5859 8.85938 17.25C9.32812 16.9062 9.5625 16.4297 9.5625 15.8203Z" fill="black"/>
<path d="M20.5874 10.3183L15.6197 11.2966L15.8084 9.47567L22.2285 0.83744L20.5874 10.3183Z" fill="black"/>
<path d="M22.1406 0.821862L24.4713 1.23283L20.3307 23.9109L18 23.4999L22.1406 0.821862Z" fill="black"/>
</svg>
